# xmcd
#
# Track frame offsets:
#	150
#	23252
#	42979
#	63456
#	74033
#	91285
#	111687
#	141464
#	160516
#	183468
#	201995
#	217897
#	235449
#	254576
#	276478
#
# Disc length: 3897 seconds
#
# Revision: 5
# Processed by: cddbd v1.5.2PL0 Copyright (c) Steve Scherf et al.
# Submitted via: EZCDAudioConverter 2.8.0.1
#
DISCID=ec0f370f
DTITLE=Various Artist - Everlasting Love Songs 3
DYEAR=1900
DGENRE=blues
TTITLE0=威猛乐队 - Careless Whisper
TTITLE1=贝蒂.希金斯 - Casablanca
TTITLE2=莱昂.里奇 霍妮.休斯敦 - Endless Love
TTITLE3=乔.考克 - You are So Beautiful
TTITLE4=凡斯.威廉姆斯 - Save the Best For Last
TTITLE5=洛德.斯特华特 - Sailing
TTITLE6=迈克尔.杰克逊 - Heal The World
TTITLE7=佩伯.布莱森 席琳狄奥 - Beauty And The Beast
TTITLE8=云妮.休斯顿 - The Greatest Love of All
TTITLE9=保罗.杨 - Always
TTITLE10=莱昂.尼奇 - Truely
TTITLE11=空气乐队 - Here I am
TTITLE12=莱昂.尼奇 - Hello
TTITLE13=保罗.迈克尔 - No More Lonely Night
TTITLE14=费尔.柯林斯 - A Groovy Kind of Love
EXTD=
EXTT0=
EXTT1=
EXTT2=
EXTT3=
EXTT4=
EXTT5=
EXTT6=
EXTT7=
EXTT8=
EXTT9=
EXTT10=
EXTT11=
EXTT12=
EXTT13=
EXTT14=
PLAYORDER=
